<svg width="16" height="16" viewBox="0 0 16 16" fill="none" xmlns="http://www.w3.org/2000/svg">
<path d="M11.3333 8C11.3333 9.84095 9.84095 11.3333 8 11.3333M11.3333 8C11.3333 6.15905 9.84095 4.66667 8 4.66667M11.3333 8H14M8 11.3333C6.15905 11.3333 4.66667 9.84095 4.66667 8M8 11.3333V14M4.66667 8C4.66667 6.15905 6.15905 4.66667 8 4.66667M4.66667 8H2M8 4.66667V2M7.33333 2H8.66667M10.357 5.64299L12.2426 3.75737M11.7712 3.28597L12.714 4.22878M14 7.33333V8.66667M10.357 10.357L12.2426 12.2426M12.7141 11.7712L11.7712 12.714M8.66667 14H7.33333M5.64297 10.357L3.75736 12.2426M4.22876 12.714L3.28595 11.7712M2 8.66667V7.33333M5.64297 5.64297L3.75735 3.75736M3.28595 4.22876L4.22876 3.28595" stroke="currentColor" stroke-linecap="round" stroke-linejoin="round"/>
</svg>
