<svg width="16" height="16" viewBox="0 0 16 16" fill="none" xmlns="http://www.w3.org/2000/svg">
<path d="M4.06673 10H11.9334M6.00008 2H10.0001M9.33344 2V6.89467C10.0343 7.14269 10.6521 7.58104 11.1177 8.16057C11.5834 8.7401 11.8783 9.43788 11.9696 10.1757C12.0608 10.9135 11.9447 11.6621 11.6343 12.3376C11.3239 13.0131 10.8314 13.5887 10.2121 14H5.78877C5.1691 13.5889 4.67625 13.0132 4.36554 12.3376C4.05482 11.662 3.93852 10.9131 4.02971 10.1751C4.12089 9.43707 4.41593 8.73905 4.88174 8.15936C5.34755 7.57968 5.96568 7.14127 6.66678 6.89333V2H9.33344Z" stroke="currentColor" stroke-linecap="round" stroke-linejoin="round"/>
</svg>
