<svg width="16" height="16" viewBox="0 0 16 16" fill="none" xmlns="http://www.w3.org/2000/svg">
<path d="M9.33341 4C9.7016 4 10.0001 3.70152 10.0001 3.33333V2.66667C10.0001 2.29848 9.7016 2 9.33341 2H6.66675C6.29856 2 6.00008 2.29848 6.00008 2.66667V3.33333C6.00008 3.70152 6.29856 4 6.66675 4M9.33341 4H6.66675M9.33341 4V4.65333C9.33351 4.93655 9.43405 5.21055 9.61715 5.42661C9.80025 5.64267 10.0541 5.78679 10.3334 5.83333C10.9107 5.92933 11.3334 6.42867 11.3334 7.01333V12.6667C11.3334 13.0203 11.1929 13.3594 10.9429 13.6095C10.6928 13.8595 10.3537 14 10.0001 14H6.00008C5.64646 14 5.30732 13.8595 5.05727 13.6095C4.80722 13.3594 4.66675 13.0203 4.66675 12.6667V7.01333C4.66675 6.42867 5.08941 5.92933 5.66675 5.83333C6.24408 5.73733 6.66675 5.238 6.66675 4.65333V4M4.66675 8H11.3334M4.66675 12H11.3334M7.33341 10H8.66675" stroke="currentColor" stroke-linecap="round" stroke-linejoin="round"/>
</svg>
