<svg width="116" height="37" viewBox="0 0 116 37" fill="none" xmlns="http://www.w3.org/2000/svg">
<path d="M50.5298 25.2378H46.5784V11.7231H50.7728C52.0592 11.7231 53.1598 11.9914 54.0746 12.5279C54.9919 13.0666 55.7252 13.8707 56.1782 14.8346C56.665 15.8367 56.9088 17.0396 56.9096 18.4433C56.9096 19.8606 56.6607 21.0759 56.1628 22.0892C55.6939 23.0715 54.935 23.8857 53.9889 24.4215C53.0383 24.9666 51.8853 25.2387 50.5298 25.2378ZM47.8098 24.1293H50.4569C51.6155 24.1293 52.5856 23.9004 53.3674 23.4424C54.1419 22.9891 54.7551 22.3038 55.1206 21.483C55.5111 20.633 55.7063 19.621 55.7063 18.4472C55.7063 17.2733 55.5141 16.2703 55.1296 15.4382C54.7829 14.6344 54.1958 13.9583 53.4492 13.5031C52.705 13.0546 51.7864 12.8304 50.6935 12.8304H47.8098V24.1293Z" fill="#D40065"/>
<path d="M62.4607 25.4684C61.8833 25.4754 61.3117 25.3523 60.7881 25.1083C60.297 24.8806 59.8792 24.5197 59.5822 24.0664C59.2714 23.5679 59.1156 22.988 59.1346 22.4004C59.1202 21.9607 59.2179 21.5245 59.4185 21.133C59.6096 20.7872 59.8861 20.4964 60.2216 20.2885C60.6035 20.0534 61.0186 19.8776 61.453 19.767C61.9678 19.6319 62.4912 19.5326 63.0195 19.4697C63.5865 19.4005 64.066 19.339 64.4582 19.2851C64.769 19.2558 65.0721 19.1712 65.3533 19.0352C65.4526 18.9823 65.5346 18.9018 65.5895 18.8034C65.6444 18.705 65.6698 18.5929 65.6628 18.4804V18.2446C65.6628 17.5543 65.4577 17.0096 65.0477 16.6106C64.6376 16.2117 64.0481 16.0126 63.2791 16.0135C62.5502 16.0135 61.9564 16.1741 61.4978 16.4953C61.0753 16.7743 60.7408 17.1681 60.5336 17.6307L59.4211 17.2283C59.6212 16.7126 59.9469 16.2553 60.3686 15.8981C60.7677 15.569 61.2293 15.3244 61.7254 15.1792C62.2194 15.0326 62.7319 14.9579 63.2472 14.9575C63.6542 14.9603 64.0594 15.0115 64.4543 15.11C64.873 15.2106 65.2693 15.3883 65.6231 15.6341C65.998 15.8999 66.2994 16.2566 66.4991 16.6709C66.7233 17.1134 66.8354 17.673 66.8354 18.3496V25.2326H65.6628V23.6332H65.5912C65.4332 23.9573 65.2213 24.252 64.9646 24.5047C64.6663 24.8013 64.3131 25.0367 63.9249 25.198C63.4603 25.3872 62.9621 25.4792 62.4607 25.4684ZM62.618 24.3932C63.1861 24.4074 63.747 24.2632 64.2382 23.9767C64.6835 23.711 65.0486 23.3292 65.2945 22.872C65.5444 22.4045 65.6724 21.8813 65.6666 21.3509V19.8862C65.5382 19.991 65.3892 20.0674 65.2293 20.1104C64.9982 20.1829 64.7629 20.2411 64.5247 20.2847C64.2587 20.336 63.994 20.3782 63.7305 20.4128L63.0195 20.5051C62.5214 20.5586 62.031 20.6691 61.5579 20.8345C61.1989 20.9535 60.8783 21.1668 60.6295 21.4521C60.4069 21.7388 60.2927 22.0952 60.3073 22.4581C60.3073 23.0749 60.5268 23.5512 60.9658 23.887C61.4441 24.2372 62.026 24.4164 62.618 24.3957V24.3932Z" fill="#D40065"/>
<path d="M73.9377 15.1023V16.1275H69.1104V15.1023H73.9377ZM70.6129 12.6738H71.7919V22.5913C71.7741 22.9359 71.8492 23.279 72.0093 23.5845C72.1378 23.8123 72.3366 23.9922 72.5758 24.0971C72.8112 24.1971 73.0645 24.2477 73.3201 24.2457C73.4524 24.2472 73.5846 24.2373 73.7152 24.2163C73.8239 24.197 73.9211 24.1753 74.0042 24.1535L74.26 25.2158C74.1224 25.2665 73.9814 25.3072 73.838 25.3376C73.6343 25.3786 73.4268 25.3975 73.2191 25.394C72.7896 25.3939 72.3657 25.2971 71.9787 25.1108C71.5828 24.9224 71.2448 24.6307 71.0004 24.2662C70.7337 23.852 70.5998 23.3659 70.6167 22.8733L70.6129 12.6738Z" fill="#D40065"/>
<path d="M79.4174 25.4684C78.8434 25.4737 78.2755 25.3507 77.755 25.1083C77.264 24.8809 76.8466 24.5199 76.5503 24.0664C76.2382 23.5684 76.0819 22.9882 76.1015 22.4004C76.0871 21.9607 76.1848 21.5245 76.3854 21.133C76.5764 20.7872 76.853 20.4964 77.1885 20.2885C77.5703 20.0534 77.9855 19.8776 78.4199 19.767C78.9347 19.6319 79.4581 19.5326 79.9864 19.4697C80.5533 19.4005 81.0333 19.339 81.4263 19.2851C81.7372 19.2558 82.0403 19.1712 82.3215 19.0352C82.4208 18.9823 82.5028 18.9018 82.5577 18.8034C82.6125 18.705 82.638 18.5929 82.6309 18.4804V18.2446C82.6309 17.5543 82.4259 17.0096 82.0158 16.6106C81.6058 16.2117 81.0163 16.0126 80.2473 16.0135C79.5184 16.0135 78.925 16.1741 78.4672 16.4953C78.044 16.7739 77.7091 17.1678 77.5018 17.6307L76.3892 17.2283C76.5894 16.7126 76.9151 16.2553 77.3368 15.8981C77.7359 15.569 78.1975 15.3244 78.6936 15.1792C79.1876 15.0326 79.7001 14.9579 80.2153 14.9575C80.6227 14.9604 81.0284 15.0116 81.4238 15.11C81.8423 15.2111 82.2385 15.3888 82.5926 15.6341C82.9667 15.9003 83.2676 16.2569 83.4673 16.6709C83.6915 17.1134 83.8036 17.673 83.8036 18.3496V25.2326H82.6309V23.6333H82.5593C82.4014 23.957 82.19 24.2516 81.934 24.5047C81.635 24.801 81.2815 25.0364 80.8931 25.198C80.4249 25.3887 79.9226 25.4808 79.4174 25.4684ZM79.5747 24.3932C80.1428 24.4074 80.7037 24.2632 81.1949 23.9767C81.6402 23.711 82.0052 23.3292 82.2511 22.872C82.501 22.4045 82.6291 21.8813 82.6233 21.3509V19.8862C82.4951 19.9912 82.346 20.0677 82.1859 20.1104C81.9548 20.1829 81.7195 20.2411 81.4813 20.2847C81.2153 20.336 80.9506 20.3782 80.6872 20.4128L79.9762 20.5051C79.4806 20.5596 78.9928 20.6705 78.5222 20.8357C78.1632 20.9548 77.8426 21.1681 77.5938 21.4534C77.3712 21.7401 77.2571 22.0965 77.2716 22.4594C77.2716 23.0762 77.4911 23.5525 77.9301 23.8883C78.4079 24.2375 78.9887 24.4162 79.5798 24.3957L79.5747 24.3932Z" fill="#D40065"/>
<path d="M86.2307 11.7231L90.4507 23.6334H90.5696L94.7896 11.7231H96.0799L91.163 25.2378H89.8458L84.9404 11.7231H86.2307Z" fill="#D40065"/>
<path d="M100.012 25.4684C99.4361 25.4747 98.8659 25.3516 98.3434 25.1083C97.8525 24.8809 97.4351 24.5199 97.1388 24.0664C96.828 23.5679 96.6722 22.988 96.6913 22.4004C96.6771 21.9608 96.7743 21.5248 96.9739 21.133C97.1653 20.7871 97.4423 20.4963 97.7782 20.2885C98.1598 20.0537 98.5745 19.8778 99.0084 19.767C99.5236 19.6319 100.047 19.5326 100.576 19.4697C101.143 19.4005 101.623 19.339 102.015 19.2851C102.326 19.2554 102.629 19.1708 102.91 19.0352C103.009 18.9822 103.091 18.9017 103.146 18.8033C103.201 18.7049 103.226 18.5928 103.219 18.4804V18.2446C103.219 17.5543 103.014 17.0096 102.603 16.6106C102.192 16.2117 101.603 16.0126 100.836 16.0135C100.107 16.0135 99.5131 16.1741 99.0544 16.4953C98.6316 16.7739 98.297 17.1679 98.0902 17.6307L96.9764 17.2283C97.177 16.7126 97.5032 16.2553 97.9253 15.8981C98.3242 15.5687 98.7858 15.3241 99.2821 15.1792C99.7756 15.0325 100.288 14.9579 100.803 14.9575C101.21 14.9604 101.616 15.0116 102.011 15.11C102.43 15.2108 102.826 15.3886 103.18 15.6341C103.554 15.9002 103.856 16.2568 104.056 16.6709C104.28 17.1134 104.392 17.673 104.391 18.3496V25.2326H103.219V23.6333H103.147C102.989 23.957 102.777 24.2516 102.521 24.5047C102.223 24.8015 101.869 25.0371 101.48 25.198C101.015 25.3878 100.515 25.4799 100.012 25.4684ZM100.171 24.3932C100.741 24.4083 101.303 24.2641 101.796 23.9767C102.242 23.711 102.607 23.3293 102.854 22.872C103.104 22.4045 103.232 21.8813 103.226 21.3509V19.8862C103.097 19.9909 102.947 20.0674 102.787 20.1104C102.556 20.1831 102.321 20.2413 102.083 20.2847C101.818 20.336 101.553 20.3782 101.29 20.4128L100.579 20.5051C100.078 20.5585 99.5858 20.6695 99.1107 20.8357C98.7517 20.9548 98.4311 21.1681 98.1823 21.4534C97.9592 21.7399 97.8446 22.0963 97.8588 22.4594C97.8588 23.0762 98.0783 23.5525 98.5173 23.8883C98.9963 24.2381 99.5785 24.4168 100.171 24.3957V24.3932Z" fill="#D40065"/>
<path d="M111.456 25.4481C110.618 25.4679 109.795 25.2309 109.095 24.7689C108.416 24.3039 107.877 23.66 107.539 22.9082C107.158 22.0634 106.969 21.1442 106.985 20.2171C106.968 19.2824 107.161 18.3558 107.548 17.5054C107.89 16.7529 108.431 16.1082 109.112 15.6408C109.8 15.1836 110.611 14.9475 111.437 14.9642C112.071 14.9556 112.699 15.0901 113.274 15.3576C113.81 15.609 114.277 15.9872 114.634 16.4597C114.996 16.9437 115.229 17.5129 115.309 18.1128H114.124C114 17.5381 113.688 17.0212 113.237 16.6442C112.771 16.2367 112.177 16.0334 111.456 16.0343C110.845 16.0236 110.246 16.2071 109.745 16.5584C109.232 16.929 108.83 17.4334 108.583 18.0167C108.292 18.6991 108.149 19.4356 108.164 20.1773C108.15 20.9239 108.289 21.6654 108.572 22.3559C108.812 22.9465 109.211 23.4592 109.723 23.8373C110.229 24.1974 110.837 24.3848 111.457 24.3717C111.881 24.3762 112.3 24.2887 112.686 24.1154C113.058 23.9493 113.383 23.6953 113.635 23.3751C113.887 23.055 114.057 22.6784 114.131 22.2777H115.317C115.239 22.8665 115.017 23.4268 114.67 23.9083C114.323 24.3899 113.863 24.7776 113.329 25.0368C112.746 25.3189 112.104 25.4598 111.456 25.4481Z" fill="#D40065"/>
<path d="M18.1868 36.4509C28.2311 36.4509 36.3736 28.2911 36.3736 18.2254C36.3736 8.15981 28.2311 0 18.1868 0C8.1425 0 0 8.15981 0 18.2254C0 28.2911 8.1425 36.4509 18.1868 36.4509Z" fill="#EA6EA7"/>
<path d="M18.1868 32.9665C26.3108 32.9665 32.8966 26.3667 32.8966 18.2254C32.8966 10.0842 26.3108 3.48438 18.1868 3.48438C10.0629 3.48438 3.47705 10.0842 3.47705 18.2254C3.47705 26.3667 10.0629 32.9665 18.1868 32.9665Z" fill="#D40065"/>
<path d="M27.3428 8.84747C28.3203 8.84747 29.1127 8.05341 29.1127 7.07388C29.1127 6.09436 28.3203 5.30029 27.3428 5.30029C26.3654 5.30029 25.573 6.09436 25.573 7.07388C25.573 8.05341 26.3654 8.84747 27.3428 8.84747Z" fill="white"/>
<path d="M26.4182 13.1098C25.7257 11.7291 24.6339 10.5898 23.2852 9.84073C21.9271 9.08037 20.3043 8.7002 18.4169 8.7002H11.8452V11.6874H18.2225C19.5089 11.6874 20.587 11.9279 21.4565 12.4088C22.332 12.8968 23.0248 13.6576 23.4297 14.5759C23.8747 15.5404 24.0972 16.7514 24.0972 18.2089C24.0972 19.6664 23.8747 20.8804 23.4297 21.8509C23.0221 22.7793 22.3205 23.5473 21.4335 24.0359C20.5486 24.5228 19.4441 24.7663 18.1202 24.7663H15.289V11.6951L11.8452 16.088V27.7573H18.2915C20.2225 27.7573 21.8764 27.3759 23.2532 26.613C24.616 25.8655 25.7198 24.7204 26.4182 23.3298C27.1522 21.9039 27.5192 20.1986 27.5192 18.214C27.5192 16.2294 27.1522 14.528 26.4182 13.1098Z" fill="white"/>
<path d="M15.2918 11.6875H15.2891V11.6902L15.2918 11.6875Z" fill="white"/>
</svg>
